<svg width="39" height="24" viewBox="0 0 39 24" fill="none" xmlns="http://www.w3.org/2000/svg">
<g clip-path="url(#clip0_1_3108)">
<path d="M36.17 0H1.97291C1.44966 0 0.947844 0.205019 0.577852 0.569954C0.207859 0.93489 0 1.42985 0 1.94595L0 22.0541C0 22.5701 0.207859 23.0651 0.577852 23.43C0.947844 23.795 1.44966 24 1.97291 24H36.17C36.6932 24 37.1951 23.795 37.5651 23.43C37.935 23.0651 38.1429 22.5701 38.1429 22.0541V1.94595C38.1429 1.42985 37.935 0.93489 37.5651 0.569954C37.1951 0.205019 36.6932 0 36.17 0V0Z" fill="#0F1822"/>
<path d="M23.5238 4.33594H14.9141V19.598H23.5238V4.33594Z" fill="#F26522"/>
<path d="M15.484 11.9675C15.484 8.87081 16.9538 6.1134 19.2423 4.33611C17.5097 2.98941 15.3671 2.25856 13.1612 2.26173C7.72648 2.26173 3.32031 6.60703 3.32031 11.9675C3.32031 17.3272 7.72582 21.6725 13.1605 21.6725C15.4557 21.6725 17.568 20.8968 19.2417 19.5982C16.9531 17.8189 15.4833 15.0635 15.4833 11.9675H15.484Z" fill="#E52423"/>
<path d="M34.2238 17.9791V17.6658H34.352V17.6023H34.0272V17.6658H34.1554V17.9791H34.2238ZM34.8551 17.9791V17.6029H34.7545L34.6401 17.8624L34.5257 17.6029H34.425V17.9791H34.4961V17.695L34.6033 17.9409H34.6763L34.7841 17.695V17.9791H34.8551ZM25.324 2.26173C23.1178 2.25856 20.9751 2.98941 19.2422 4.33611C20.4145 5.24364 21.3621 6.40234 22.0132 7.72449C22.6644 9.04664 23.002 10.4976 23.0006 11.9675C23.0006 15.0635 21.5308 17.8189 19.2422 19.5956C20.9747 20.9425 23.1173 21.6736 25.3234 21.6706C30.7581 21.6706 35.1636 17.3246 35.1636 11.9649C35.1609 6.60703 30.7574 2.26173 25.3234 2.26173H25.324Z" fill="#F99F1C"/>
</g>
<defs>
<clipPath id="clip0_1_3108">
<rect width="38.1429" height="24" fill="white"/>
</clipPath>
</defs>
</svg>
