<svg width="39" height="24" viewBox="0 0 39 24" fill="none" xmlns="http://www.w3.org/2000/svg">
<path d="M36.17 0H1.97291C0.883301 0 0 0.87123 0 1.94595V22.0541C0 23.1288 0.883301 24 1.97291 24H36.17C37.2596 24 38.1429 23.1288 38.1429 22.0541V1.94595C38.1429 0.87123 37.2596 0 36.17 0Z" fill="#FFB3C7"/>
<path d="M16.0338 10.9545V10.6886H17.3833V15.1474H16.0338C16.0338 15.0812 16.0338 14.9814 16.0003 14.8815C15.3926 15.2473 14.7179 15.3809 14.0432 15.1805C13.571 15.0812 13.1323 14.8146 12.795 14.3826C12.1202 13.5504 12.1202 12.3855 12.7608 11.5202C13.1323 11.0207 13.6381 10.7217 14.2799 10.5887C14.9205 10.4888 15.4939 10.6211 16.0338 10.9545ZM14.8192 11.7861C14.1444 11.7861 13.571 12.2856 13.571 12.918C13.571 13.5504 14.1102 14.0492 14.7856 14.083C15.4604 14.083 16.0338 13.5835 16.0338 12.9511C16.0338 12.3186 15.4939 11.7861 14.8192 11.7861ZM31.7559 15.1805H30.4058V14.9145C29.8324 15.2804 29.2254 15.3803 28.55 15.2473C27.9094 15.1143 27.4031 14.7478 27.0321 14.2159C26.7512 13.7761 26.6253 13.2571 26.674 12.7395C26.7228 12.2219 26.9434 11.7347 27.3018 11.3535C27.9765 10.6218 29.2254 10.2553 30.4058 10.9876C30.4058 10.8877 30.4058 10.8216 30.44 10.7217H31.7895C31.7553 12.1857 31.7553 13.6834 31.7553 15.1805H31.7559ZM30.3723 12.9511C30.3723 12.3186 29.833 11.7861 29.1576 11.7861C28.4829 11.7861 27.943 12.2856 27.943 12.918C27.943 13.5498 28.4822 14.0823 29.1576 14.0823C29.8324 14.0823 30.3723 13.5829 30.3723 12.9511ZM22.8489 15.1811H21.4659V10.7217H22.8154V11.1874C23.5572 10.3221 24.9744 10.5219 25.5821 11.0544C25.953 11.3872 26.1555 11.7868 26.1555 12.2856V15.1811H24.806V12.6521C24.7048 11.9528 24.2319 11.753 23.6249 11.8529C23.1527 11.9528 22.8825 12.2856 22.8489 12.785V15.1811ZM9.89283 15.1805H8.13825C8.07564 15.1794 8.01556 15.1559 7.96924 15.1143C7.22743 14.1491 6.5185 13.1509 5.77668 12.1857C5.77668 12.1857 5.77668 12.1526 5.74248 12.1526L6.24886 11.753C7.26097 11.0207 7.80089 10.0224 7.83443 8.75822V8.69141H9.31937C9.28517 10.1223 8.77945 11.3204 7.76735 12.3524C8.50916 13.2838 9.1839 14.2153 9.89283 15.1805ZM5.57413 15.1811H4.08984V8.72514H5.57413V15.1811ZM11.748 15.1805H10.3302V8.72514H11.7474V15.1805H11.748ZM20.8589 10.6879V11.9859C20.6643 12.0146 20.4725 12.0593 20.2855 12.1195C19.7455 12.3186 19.5094 12.6851 19.5094 13.2508V15.1805H18.1258V10.7217H19.5094V11.2873C19.8804 10.8546 20.319 10.6879 20.8589 10.6879ZM33.208 13.5835C33.3191 13.5824 33.4293 13.6031 33.5321 13.6445C33.6349 13.6859 33.7284 13.7471 33.8069 13.8245C33.8855 13.902 33.9476 13.9941 33.9897 14.0955C34.0317 14.1969 34.0528 14.3055 34.0518 14.4151C34.0529 14.5247 34.0319 14.6334 33.9899 14.7349C33.9479 14.8364 33.8858 14.9286 33.8072 15.0061C33.7286 15.0836 33.6351 15.1448 33.5322 15.1862C33.4294 15.2277 33.3191 15.2484 33.208 15.2473C32.9766 15.2433 32.7558 15.1508 32.5922 14.9894C32.4285 14.828 32.3348 14.6102 32.3307 14.382C32.3307 13.9494 32.7358 13.5835 33.208 13.5835Z" fill="black"/>
</svg>
