<svg width="39" height="24" viewBox="0 0 39 24" fill="none" xmlns="http://www.w3.org/2000/svg">
<path d="M36.2311 24H1.91176C1.66042 24.001 1.41135 23.9526 1.17894 23.8575C0.946521 23.7624 0.735357 23.6225 0.557626 23.4459C0.379896 23.2693 0.239118 23.0595 0.143413 22.8286C0.0477085 22.5977 -0.0010276 22.3502 1.64254e-05 22.1005V1.89955C-0.0010276 1.64981 0.0477085 1.40233 0.143413 1.1714C0.239118 0.940473 0.379896 0.730658 0.557626 0.554063C0.735357 0.377469 0.946521 0.23759 1.17894 0.142497C1.41135 0.0474037 1.66042 -0.00102104 1.91176 1.63204e-05H36.2311C36.4825 -0.00102104 36.7316 0.0474037 36.964 0.142497C37.1964 0.23759 37.4076 0.377469 37.5853 0.554063C37.763 0.730658 37.9038 0.940473 37.9995 1.1714C38.0952 1.40233 38.1439 1.64981 38.1429 1.89955V22.1005C38.1429 23.1557 37.263 24 36.2311 24Z" fill="#1A1F70"/>
<path d="M18.9651 8.35526L17.3868 15.6515H15.4751L17.0534 8.35461H18.9651V8.35526ZM26.9456 13.0887L27.9465 10.3443L28.5232 13.0887H26.9449H26.9456ZM29.0697 15.6515H30.8296L29.2821 8.35461H27.6736C27.3092 8.35461 27.0061 8.56632 26.8541 8.89761L24.0026 15.6515H26.0051L26.3997 14.5661H28.8277L29.0704 15.6508L29.0697 15.6515ZM24.1236 13.2697C24.1236 11.3395 21.4536 11.2493 21.4536 10.375C21.4536 10.1038 21.6957 9.83267 22.2724 9.7719C22.5453 9.74185 23.3042 9.71179 24.1532 10.1038L24.4873 8.56632C24.0322 8.41538 23.4555 8.23438 22.6972 8.23438C20.8164 8.23438 19.511 9.22955 19.4807 10.6462C19.4807 11.7015 20.4212 12.2746 21.1498 12.6366C21.8778 12.9979 22.1507 13.209 22.1205 13.5409C22.1205 14.0231 21.5437 14.2342 20.9979 14.2643C20.0266 14.2643 19.4807 13.9931 19.0559 13.8121L18.6916 15.3803C19.1467 15.5914 19.9661 15.7724 20.8157 15.7724C22.7886 15.7724 24.0927 14.8073 24.1236 13.2697ZM16.234 8.35461L13.1694 15.6515H11.1656L9.64842 9.83202C9.55767 9.47067 9.46626 9.34979 9.19334 9.19884C8.73825 8.95773 7.97934 8.71661 7.3125 8.56632L7.37234 8.35526H10.6197C11.0446 8.35526 11.4089 8.62644 11.4997 9.10867L12.2888 13.3299L14.2604 8.35461H16.2333H16.234Z" fill="white"/>
</svg>
