<svg width="39" height="24" viewBox="0 0 39 24" fill="none" xmlns="http://www.w3.org/2000/svg">
<path d="M36.1693 0.324219H1.97222C1.06421 0.324219 0.328125 1.05024 0.328125 1.94584V22.0539C0.328125 22.9495 1.06421 23.6756 1.97222 23.6756H36.1693C37.0773 23.6756 37.8134 22.9495 37.8134 22.0539V1.94584C37.8134 1.05024 37.0773 0.324219 36.1693 0.324219Z" fill="white"/>
<path fill-rule="evenodd" clip-rule="evenodd" d="M1.97291 0.648649C1.2465 0.648649 0.657636 1.22947 0.657636 1.94595V22.0541C0.657636 22.7705 1.2465 23.3514 1.97291 23.3514H36.17C36.8964 23.3514 37.4853 22.7705 37.4853 22.0541V1.94595C37.4853 1.22947 36.8964 0.648649 36.17 0.648649H1.97291ZM0 1.94595C0 0.87123 0.883301 0 1.97291 0H36.17C37.2596 0 38.1429 0.87123 38.1429 1.94595V22.0541C38.1429 23.1288 37.2596 24 36.17 24H1.97291C0.883301 24 0 23.1288 0 22.0541V1.94595Z" fill="#020202"/>
<path d="M4.95312 10.943C4.96825 10.8379 4.9814 10.7309 4.99916 10.6251C5.07545 10.1704 5.23459 9.74687 5.51146 9.3726C5.83435 8.92976 6.30598 8.6142 6.84251 8.482C7.25551 8.37368 7.65798 8.40741 8.05454 8.55335L8.65693 8.77519C8.83844 8.842 9.02061 8.84265 9.20277 8.77714C9.41979 8.6993 9.63484 8.61692 9.85317 8.54233C10.1715 8.4327 10.4977 8.36395 10.8383 8.39184C11.3644 8.4366 11.8412 8.6046 12.2279 8.97368C12.341 9.08135 12.4357 9.20719 12.537 9.322C12.4245 9.41022 12.316 9.48481 12.2187 9.57043C11.7952 9.94665 11.5387 10.4072 11.5058 10.9761C11.4835 11.3555 11.5374 11.7233 11.7117 12.069C11.9182 12.477 12.2378 12.7735 12.6389 12.9901C12.6606 13.0018 12.6823 13.0141 12.7034 13.0238C12.7961 13.0692 12.7954 13.0692 12.7645 13.1633C12.6672 13.4584 12.5376 13.7406 12.3831 14.0098C12.1773 14.3665 11.9523 14.7123 11.6794 15.0243C11.5446 15.1799 11.394 15.3181 11.2145 15.4251C10.9159 15.6022 10.5976 15.6327 10.2675 15.5484C10.1209 15.5081 9.97794 15.4561 9.84002 15.3927C9.30734 15.1566 8.77991 15.1644 8.24986 15.3972C8.06375 15.4796 7.87369 15.5568 7.67048 15.5944C7.36139 15.6515 7.0865 15.5802 6.83331 15.4005C6.5788 15.2202 6.38151 14.9873 6.19606 14.7421C5.90012 14.3497 5.63575 13.9384 5.43912 13.4876C5.19775 12.9375 5.04125 12.3548 4.97483 11.759C4.96825 11.6987 4.96036 11.639 4.95312 11.5787V10.943ZM10.8048 6.07422C10.8067 6.15206 10.8113 6.22989 10.8094 6.30708C10.7982 6.75595 10.6318 7.15357 10.3701 7.51227C10.1044 7.87811 9.7519 8.1246 9.30339 8.22903C9.15532 8.26131 9.00277 8.26855 8.85225 8.25043C8.82385 8.06537 8.83619 7.87644 8.88842 7.69649C9.13635 6.83508 9.70915 6.30838 10.5878 6.10081C10.6364 6.08979 10.6871 6.08265 10.737 6.07422H10.8048ZM15.7535 12.5127V15.4945H14.3724V6.74362H17.6817C18.217 6.74362 18.7286 6.84416 19.2028 7.09714C19.7268 7.37039 20.1403 7.81211 20.3747 8.34903C20.5917 8.83292 20.6614 9.34211 20.6253 9.86687C20.5924 10.3469 20.4615 10.7977 20.2044 11.2089C19.8762 11.7337 19.4119 12.0943 18.8293 12.3116C18.4426 12.4556 18.0394 12.5114 17.6284 12.5127H15.7541H15.7535ZM15.7324 11.3776H15.7798C16.2974 11.3776 16.8149 11.3795 17.3331 11.3769C17.5528 11.3756 17.7691 11.3549 17.9816 11.2991C18.5307 11.1564 18.922 10.8379 19.1048 10.2969C19.2245 9.94406 19.2298 9.58146 19.164 9.21822C19.064 8.65908 18.7523 8.26146 18.2111 8.04935C17.9197 7.93584 17.6133 7.9047 17.3029 7.90341H15.7324V11.3782V11.3776ZM21.2711 11.026C21.277 10.8398 21.3131 10.6628 21.3763 10.4909C21.5854 9.91487 21.9977 9.52957 22.5534 9.28308C22.9217 9.12092 23.3097 9.04438 23.7129 9.02233C24.187 8.99638 24.6533 9.03789 25.1031 9.19292C25.6864 9.39206 26.1336 9.74427 26.3756 10.3203C26.4861 10.5836 26.5282 10.8599 26.5282 11.1421C26.5302 12.5847 26.5289 14.0279 26.5289 15.4699V15.5179H25.2596V14.4794L25.2458 14.4768C25.2392 14.4846 25.23 14.4911 25.2254 14.5002C24.9203 15.0411 24.4527 15.3804 23.8562 15.5412C23.1545 15.7294 22.4752 15.6593 21.8498 15.2837C21.3559 14.9873 21.0777 14.5404 21.0054 13.9735C20.9626 13.6414 20.9909 13.3183 21.1264 13.0083C21.2816 12.6548 21.542 12.3985 21.8761 12.2117C22.2265 12.0165 22.615 11.8969 23.0158 11.8608C23.463 11.8174 23.9121 11.7972 24.3606 11.7694C24.6276 11.7525 24.894 11.7402 25.1623 11.7246C25.1689 11.7246 25.1768 11.7227 25.1906 11.7201V11.5761C25.184 11.3834 25.1945 11.1888 25.1643 10.9988C25.0932 10.5467 24.8085 10.2749 24.3679 10.1614C24.0126 10.0671 23.6367 10.0807 23.2893 10.2003C22.9046 10.33 22.6508 10.5882 22.5502 10.9825C22.5423 11.0137 22.5344 11.0338 22.4936 11.0338C22.1003 11.0312 21.7064 11.0325 21.3131 11.0325C21.2992 11.0299 21.2851 11.0278 21.2711 11.026ZM25.1906 12.6282C25.1656 12.6282 25.1511 12.6269 25.136 12.6282C24.5915 12.6606 24.0469 12.6904 23.5024 12.7287C23.2553 12.7412 23.0141 12.8077 22.7961 12.9233C22.3456 13.1698 22.2595 13.6446 22.4259 14.026C22.5488 14.3101 22.7895 14.4658 23.0822 14.5391C23.5295 14.6562 24.0055 14.5983 24.4106 14.3776C24.8197 14.1616 25.088 13.8321 25.1669 13.3748C25.1945 13.2132 25.1846 13.0459 25.1899 12.8818C25.1925 12.7988 25.1899 12.7151 25.1899 12.6288L25.1906 12.6282ZM27.7087 17.8855V16.8392C27.8796 16.8392 28.0493 16.8431 28.2203 16.8379C28.4709 16.8301 28.7037 16.7678 28.8944 16.5959C29.0308 16.4719 29.1347 16.3169 29.1969 16.1445C29.2686 15.9551 29.3264 15.7618 29.3863 15.5685C29.3929 15.5464 29.3837 15.5172 29.3758 15.4939C29.018 14.5177 28.6596 13.5415 28.3005 12.5665L27.0668 9.21043C27.0609 9.19487 27.0563 9.1793 27.0497 9.15789C27.0734 9.1566 27.0938 9.1553 27.1128 9.1553C27.5482 9.1553 27.9829 9.1566 28.4176 9.15465C28.463 9.15465 28.4834 9.16698 28.4965 9.21043C29.0312 10.9099 29.5685 12.6094 30.1031 14.3088L30.1248 14.3672H30.1406C30.1472 14.3497 30.1557 14.3328 30.161 14.3153L31.4013 10.3858C31.5262 9.9927 31.6499 9.60027 31.7735 9.20719C31.7834 9.17346 31.7932 9.15465 31.8366 9.15465C32.274 9.1566 32.71 9.15595 33.1467 9.15595C33.1618 9.15595 33.1762 9.15789 33.1966 9.15984L33.0421 9.59249L30.7825 15.887C30.6522 16.2496 30.5023 16.6037 30.2945 16.93C30.0952 17.2414 29.8526 17.5073 29.5158 17.6792C29.2655 17.8049 28.9928 17.8815 28.7129 17.9049C28.5728 17.9185 28.4301 17.9309 28.29 17.9263C28.096 17.9231 27.904 17.9004 27.7087 17.8861V17.8855Z" fill="black"/>
</svg>
