<svg width="39" height="24" viewBox="0 0 39 24" fill="none" xmlns="http://www.w3.org/2000/svg">
<path d="M36.17 0H1.97291C0.883301 0 0 0.87123 0 1.94595V22.0541C0 23.1288 0.883301 24 1.97291 24H36.17C37.2596 24 38.1429 23.1288 38.1429 22.0541V1.94595C38.1429 0.87123 37.2596 0 36.17 0Z" fill="#EB6F93"/>
<path d="M11.6053 21.4444C12.4444 21.4444 13.0541 20.8801 13.0541 20.0907C13.0541 19.3382 12.5207 19.0379 11.8729 18.8128C11.4534 18.6993 11.1864 18.5864 11.1864 18.3231C11.1841 18.2632 11.1943 18.2035 11.2165 18.1478C11.2387 18.092 11.2723 18.0413 11.3153 17.999C11.3583 17.9567 11.4097 17.9236 11.4663 17.9018C11.5229 17.88 11.5834 17.8699 11.6441 17.8723C11.8729 17.8723 12.063 18.0228 12.2162 18.2109L12.9021 17.797C12.6733 17.3462 12.2156 17.0829 11.6822 17.0829C10.8431 17.0829 10.3097 17.6842 10.3097 18.3607C10.3097 18.8874 10.653 19.3389 11.4534 19.564C11.9111 19.6768 12.1774 19.7897 12.1774 20.1283C12.1774 20.4662 11.9486 20.6543 11.6053 20.6543C11.2245 20.6543 10.9575 20.4286 10.7675 20.2035L10.1953 20.8048C10.5005 21.181 11.0338 21.4444 11.6059 21.4444H11.6053ZM14.9605 21.4444C14.0833 21.4444 13.3592 20.7672 13.3592 19.9026C13.3592 19.0755 14.0833 18.3607 14.9605 18.3607C15.8372 18.3607 16.5612 19.0379 16.5612 19.9026C16.5612 20.7672 15.8372 21.4444 14.9605 21.4444ZM14.9605 20.692C15.3795 20.692 15.7227 20.354 15.7227 19.9402C15.7227 19.4887 15.3795 19.1877 14.9599 19.1877C14.541 19.1877 14.1977 19.5263 14.1977 19.9402C14.1977 20.354 14.541 20.6926 14.9605 20.6926V20.692ZM18.5815 17.9475V17.1951H18.4671C17.4379 17.1951 16.9427 17.8723 16.9427 18.6241V21.3692H17.7811V20.1659C17.7811 19.7521 18.0863 19.4887 18.544 19.4511V18.6623C18.2007 18.6623 17.9337 18.7752 17.7811 18.9633V18.6623C17.7811 18.1363 18.1244 17.9099 18.5815 17.9482V17.9475ZM20.411 21.4437C19.5344 21.4437 18.8103 20.7672 18.8103 19.9026C18.8103 19.0755 19.5344 18.3607 20.411 18.3607C21.2883 18.3607 22.0124 19.0379 22.0124 19.9026C22.0124 20.7672 21.2877 21.4444 20.411 21.4444V21.4437ZM20.411 20.692C20.8306 20.692 21.1739 20.354 21.1739 19.9402C21.1739 19.4887 20.8306 19.1877 20.411 19.1877C19.9921 19.1877 19.6488 19.5263 19.6488 19.9402C19.6488 20.354 19.9921 20.6926 20.4117 20.6926L20.411 20.692ZM23.2704 18.8122V18.4736H22.4694V21.3692H23.3086V20.0524C23.3086 19.564 23.6131 19.3013 24.1089 19.3013V18.4353C23.6894 18.3977 23.4224 18.5482 23.2704 18.8115V18.8122ZM25.367 19.9026V19.1884C25.5577 19.3765 25.824 19.4887 26.1292 19.4887V18.6993C25.6715 18.6993 25.3663 18.3983 25.3663 17.9851V17.5337H24.5285V19.9402C24.5285 20.7296 25.0237 21.3692 26.0529 21.3692H26.1673V20.6167C25.7096 20.6167 25.367 20.391 25.367 19.9026ZM27.1584 21.4444C27.4635 21.4444 27.7305 21.181 27.7305 20.8801C27.727 20.7315 27.6656 20.59 27.5591 20.4849C27.4525 20.3798 27.309 20.3192 27.1584 20.3157C27.0077 20.3192 26.8642 20.3798 26.7577 20.4849C26.6512 20.59 26.5898 20.7315 26.5862 20.8801C26.5862 21.181 26.8532 21.4444 27.1584 21.4444ZM17.2097 11.1043C17.476 11.3676 17.476 11.7815 17.2097 12.0072L17.1715 12.0442C16.9045 12.3075 16.4849 12.3075 16.2567 12.0442L14.7698 10.6535C14.3503 10.2396 14.3121 9.7512 14.5791 9.48785L14.6173 9.45023C14.7214 9.34573 14.8616 9.28381 15.01 9.27683C15.1583 9.26986 15.3039 9.31834 15.4176 9.41261C15.4752 9.45251 15.5454 9.47067 15.6154 9.46376C15.6854 9.45686 15.7506 9.42535 15.799 9.37499C15.9135 9.26212 15.8753 9.11164 15.7609 8.99877C15.3038 8.66083 14.6561 8.69845 14.2746 9.11164L14.2358 9.14926C13.7788 9.63834 13.8544 10.4277 14.4647 11.029L15.9135 12.458C16.0246 12.5669 16.1568 12.6526 16.3023 12.7099C16.4478 12.7672 16.6035 12.7949 16.7601 12.7914C16.9167 12.7879 17.0709 12.7532 17.2136 12.6894C17.3563 12.6257 17.4845 12.5342 17.5904 12.4204L17.6286 12.3828C17.739 12.2732 17.8259 12.1428 17.8839 11.9993C17.942 11.8558 17.9701 11.7022 17.9666 11.5477C17.963 11.3933 17.9278 11.2411 17.8632 11.1004C17.7986 10.9596 17.7058 10.8332 17.5904 10.7287C17.476 10.6159 17.3241 10.6159 17.209 10.7287C17.0952 10.8416 17.0952 10.9914 17.209 11.1049L17.2097 11.1043ZM16.333 3.35942L16.9427 8.20937C16.9427 8.35985 17.0952 8.4351 17.2478 8.4351C17.4004 8.4351 17.4767 8.28461 17.4767 8.13412L16.8664 3.24656V3.20893C16.7519 2.83272 17.0189 2.38191 17.3241 2.30666C17.5148 2.26904 17.7055 2.30666 17.8581 2.41953C18.01 2.53239 18.1626 2.68288 18.2007 2.87034L19.2299 7.26947C19.2681 7.41996 19.4206 7.4952 19.5351 7.45758C19.6876 7.41996 19.7639 7.26947 19.7258 7.15661L18.7341 2.75747C18.6537 2.44146 18.4651 2.16257 18.2001 1.96807C17.9331 1.77996 17.5523 1.74234 17.2471 1.81758C16.5994 1.93045 16.1798 2.68288 16.3324 3.35942H16.333Z" fill="white"/>
<path d="M21.8147 9.0733L22.9965 3.24584C23.0688 2.94221 23.0226 2.62287 22.8671 2.35128C22.7116 2.07968 22.4583 1.87572 22.1574 1.7799C21.4714 1.59179 20.7474 2.00498 20.5567 2.68152L19.2611 7.11828C19.2223 7.26876 19.2986 7.38163 19.4512 7.45687C19.6037 7.53211 19.7182 7.41925 19.7945 7.26876L21.09 2.83201C21.1663 2.41882 21.5859 2.19309 22.0054 2.30595C22.3481 2.41882 22.5769 2.75676 22.5006 3.13298L21.3189 8.96109C21.2807 9.11093 21.3952 9.22379 21.5096 9.26141C21.6622 9.29903 21.8147 9.18617 21.8147 9.0733ZM18.8415 14.6757C16.9739 14.6757 15.4113 13.322 15.4113 11.4045C15.4122 11.3697 15.4059 11.3351 15.3928 11.3027C15.3797 11.2704 15.3601 11.241 15.3351 11.2163C15.3102 11.1917 15.2804 11.1723 15.2476 11.1594C15.2148 11.1465 15.1796 11.1403 15.1443 11.1412C15.109 11.1403 15.0739 11.1465 15.0411 11.1594C15.0083 11.1723 14.9785 11.1917 14.9535 11.2163C14.9285 11.241 14.9089 11.2704 14.8958 11.3027C14.8827 11.3351 14.8764 11.3697 14.8773 11.4045C14.8773 13.6229 16.7069 15.2017 18.8415 15.2017C18.8768 15.2026 18.9119 15.1964 18.9446 15.1836C18.9774 15.1707 19.0071 15.1514 19.0321 15.1268C19.0571 15.1022 19.0767 15.0729 19.0899 15.0407C19.103 15.0084 19.1094 14.9738 19.1085 14.939C19.1095 14.9042 19.1032 14.8696 19.0901 14.8372C19.077 14.8049 19.0573 14.7755 19.0324 14.7508C19.0074 14.7262 18.9776 14.7068 18.9448 14.6939C18.912 14.681 18.8769 14.6748 18.8415 14.6757ZM17.9274 10.1261C17.8893 10.2765 17.813 10.3894 17.6611 10.5023L17.6223 10.5399C17.3178 10.728 16.8989 10.6528 16.7082 10.3518L15.5639 8.66011C15.2594 8.17103 15.2975 7.6826 15.602 7.49449L15.6402 7.45687C16.0216 7.23114 16.3649 7.41925 16.7075 7.90833L17.6611 9.33666C17.7367 9.44952 17.8893 9.48714 18.0425 9.4119C18.1563 9.33666 18.1944 9.18617 18.1181 9.03568L17.1652 7.60736C16.7075 6.93082 16.0979 6.62984 15.412 7.04303L15.3357 7.08066C14.7635 7.45687 14.6873 8.2839 15.145 8.96109L16.2886 10.6528C16.67 11.1788 17.3934 11.3293 17.9274 10.9537L18.0037 10.9161C18.2326 10.7656 18.3851 10.5399 18.4614 10.2765C18.4996 10.1261 18.4233 10.0138 18.2707 9.97622C18.1181 9.90098 17.9656 9.97622 17.9274 10.1261Z" fill="white"/>
<path d="M19.6859 10.9899C19.1526 11.2909 18.8093 11.8552 18.7718 12.7199C18.7718 12.8704 18.8856 12.9826 19.0381 12.9826C19.0734 12.9835 19.1085 12.9773 19.1412 12.9644C19.174 12.9515 19.2037 12.9322 19.2287 12.9077C19.2537 12.8831 19.2733 12.8538 19.2865 12.8215C19.2996 12.7892 19.3059 12.7547 19.3051 12.7199C19.3433 11.9298 19.6478 11.5166 20.1436 11.3285C20.4106 11.2157 20.7158 11.2157 20.944 11.2533H21.0202C21.3635 11.3285 21.478 10.8018 21.1347 10.7272L19.1144 10.2758C18.1608 10.0124 18.0089 9.67448 18.1996 9.11015C18.2759 8.8468 18.4285 8.73394 18.6567 8.69696C18.8093 8.65934 19 8.65934 19.1526 8.69696C19.1907 8.69696 19.2288 8.69696 19.267 8.73394L22.3546 9.44875C22.3927 9.44875 22.3927 9.44875 22.4309 9.48637C22.469 9.52399 22.5453 9.56161 22.5835 9.59923C22.7742 9.82496 22.8879 10.2382 22.8498 10.9147C22.6591 13.2836 21.5543 14.7502 18.8856 14.7125C18.8503 14.7116 18.8152 14.7178 18.7825 14.7307C18.7497 14.7436 18.72 14.7629 18.695 14.7875C18.67 14.812 18.6504 14.8413 18.6372 14.8736C18.6241 14.9059 18.6177 14.9405 18.6186 14.9752C18.6186 15.1257 18.733 15.2386 18.8856 15.2386C21.8587 15.2762 23.1549 13.5469 23.3838 10.9523C23.4601 10.1629 23.3075 9.59923 22.9642 9.26064C22.7735 9.07253 22.6216 8.99729 22.469 8.95967L19.4196 8.24551C19.3814 8.24551 19.3433 8.2455 19.267 8.20788C19.0397 8.17029 18.8077 8.17029 18.5804 8.20788C18.1615 8.28313 17.8564 8.54648 17.7419 8.99729C17.4749 9.82496 17.7419 10.5015 19.0375 10.8395L19.6859 10.9899Z" fill="white"/>
</svg>
