<svg width="39" height="24" viewBox="0 0 39 24" fill="none" xmlns="http://www.w3.org/2000/svg">
<path d="M35.4344 0H2.70839C1.21258 0 0 1.1912 0 2.66062V21.3394C0 22.8088 1.21258 24 2.70839 24H35.4344C36.9303 24 38.1429 22.8088 38.1429 21.3394V2.66062C38.1429 1.1912 36.9303 0 35.4344 0Z" fill="#5A31F4"/>
<path d="M8.06159 6.13686C6.61662 6.12677 5.22264 6.66099 4.16629 7.6296C4.12093 7.67027 4.09265 7.72613 4.08699 7.78618C4.08133 7.84623 4.09871 7.90629 4.13571 7.95442L4.7894 8.83128C4.8106 8.86049 4.83804 8.88485 4.86983 8.9026C4.90162 8.92028 4.93698 8.93095 4.97341 8.93377C5.00984 8.93665 5.04645 8.93167 5.08071 8.91917C5.11496 8.90659 5.14601 8.88688 5.17168 8.86134C5.55148 8.48826 6.00318 8.19331 6.50036 7.99371C6.99759 7.79417 7.53029 7.69398 8.06739 7.69902C10.3094 7.69902 11.481 9.35701 11.481 10.9943C11.481 12.7743 10.2501 14.0267 8.48209 14.0511C7.11552 14.0511 6.0853 13.1611 6.0853 11.9857C6.08664 11.6887 6.15505 11.3957 6.2856 11.1278C6.41617 10.86 6.60562 10.6239 6.84027 10.4366C6.89 10.396 6.92147 10.3378 6.92786 10.2746C6.93433 10.2113 6.9152 10.1482 6.87467 10.0987L6.1866 9.2462C6.16581 9.2204 6.13996 9.19899 6.11057 9.18314C6.08119 9.16736 6.04888 9.15747 6.01556 9.15413C5.98224 9.15086 5.94855 9.15413 5.91654 9.16382C5.88453 9.17352 5.85481 9.18936 5.82916 9.21058C5.40708 9.54463 5.06648 9.96721 4.83232 10.4474C4.59816 10.9276 4.47638 11.4532 4.47593 11.9857C4.47593 14.0098 6.22673 15.5964 8.46876 15.6095H8.49936C11.1618 15.5757 13.0866 13.6381 13.0866 10.9906C13.0866 8.63973 11.3243 6.13686 8.06159 6.13686Z" fill="white"/>
<path fill-rule="evenodd" clip-rule="evenodd" d="M16.4927 15.1286V11.9104H18.555C20.439 11.9104 21.4411 10.8733 21.4411 9.30165C21.4411 7.72997 20.439 6.78906 18.555 6.78906H15.1641V15.1286H16.4927ZM16.4927 8.02931H18.25C19.4698 8.02931 20.0687 8.52112 20.0687 9.34441C20.0687 10.1676 19.4916 10.6594 18.3044 10.6594H16.4927V8.02931ZM23.7835 15.2996C24.7963 15.2996 25.4607 14.8613 25.7657 14.1129C25.8527 14.9468 26.3646 15.3745 27.4756 15.0858L27.4864 14.1985C27.0398 14.2411 26.9528 14.0807 26.9528 13.621V11.44C26.9528 10.157 26.0924 9.39785 24.5022 9.39785C22.934 9.39785 22.0301 10.1676 22.0301 11.472H23.2498C23.2498 10.8519 23.6964 10.4777 24.4805 10.4777C25.3082 10.4777 25.6893 10.8306 25.6785 11.44V11.718L24.2736 11.8676C22.6945 12.0387 21.8231 12.6267 21.8231 13.6532C21.8231 14.4977 22.4331 15.2996 23.7835 15.2996ZM24.0558 14.3374C23.3697 14.3374 23.0973 13.9739 23.0973 13.6103C23.0973 13.1185 23.6637 12.894 24.7746 12.7657L25.6459 12.6695C25.5913 13.6103 24.9488 14.3374 24.0558 14.3374ZM31.5206 15.5455C30.9652 16.8713 30.0721 17.2669 28.6781 17.2669H28.079V16.1763H28.7217C29.4841 16.1763 29.8543 15.9411 30.2572 15.2676L27.7851 9.5689H29.1572L30.9216 13.728L32.4899 9.5689H33.8295L31.5206 15.5455Z" fill="white"/>
</svg>
